<?xml version="1.0" encoding="UTF-8"?>
<svg viewBox="0 0 1052.3622 744.09448" xmlns="http://www.w3.org/2000/svg">
 <g transform="matrix(1.8479 0 0 1.8479 -464.71 -364.72)" fill-rule="evenodd">
  <path d="m608.11 394.58c-4.0406 0-58.589 7.0711-58.589 7.0711 2.4378-51.679 43.353-96.841 118.19-93.944s165.15 113.6 8.0812 111.12c-11.663 12.397-15.979 38.242-20.203 41.416-20.953-11.156-38.217-13.216-59.599-17.173 8.7835-12.219 18.662-24.782 23.234-31.315 10.574-15.111 26.566-17.607 42.426-19.193 47.926-6.6056 17.758-32.799-20.55-37.08-35.687-3.6769-51.782 17.473-32.988 39.1z" fill="#20c009" stroke="#341d1d" stroke-linecap="round" stroke-linejoin="round" stroke-width="2.7057"/>
  <path d="m590.36 475.88c16.754-1.3628 51.194 7.4584 50 8.2143-2.6222 1.6595-16.183 39.13-18.571 39.643-1.259 0.27049-40.987-0.27044-42.5-0.35713-2.2731-0.13027 7.734-51.195 11.071-47.5z" fill="#20c009" stroke="#341d1d" stroke-width="2.7057"/>
  <g stroke="#000">
   <path d="m549.52 285.49c24.917 3.8262 49.834 3.2104 70.711 16.162-20.927 45.638-31.82 99.374-42.426 142.43l-47.477-2.0203c4.0084-52.191 7.3655-104.38 19.193-156.57z" stroke-width="1.6234"/>
   <path d="m517.1 472.17c26.413-2.7845 47.756 3.2679 68.875 9.7103 0.94812 14.292 7.7774 25.416-6.0772 48.552-25.653 4.1256-38.033 3.9284-54.695 9.7103-8.9019-19.055-6.5899-44.625-8.103-67.972z" stroke-width="1.5196"/>
  </g>
  <g fill="#ee2828" stroke="#341d1d" stroke-width="2.1646">
   <path d="m419.21 425.9s-54.353 38.397-62.395 43.263c-10.889-14.939-27.207-34.872-22.877-74.347 12.573-114.63 350.4-111.91 209.52 6.8406-31.228 26.324-26.908 32.469-21.213 54.548l-58.589 27.274c-14.07-26.04-14.887-49.824 9.0271-72.894 35.059-33.822 62.941-79.352-44.382-32.162-28.568 12.561-34.62 30.783-9.0914 47.477z"/>
   <path d="m466.83 509.26c19.16-7.807 39.89-13.26 62.857-15.357 5.5646 13.265 10.822 27.042 13.571 45-19.106 9.7649-37.083 21.786-54.286 35.357-17.661-18.039-20.371-41.354-22.143-65z"/>
  </g>
 </g>
</svg>
